PathFileType	4	(X/Y/Z)	C:\Git\research_data\Projects\torsion_deformities_healthy_kinematics\simulations\TD01\pre\static_01\marker_experimental.trc
DataRate	CameraRate	NumFrames	NumMarkers	Units	OrigDataRate	OrigDataStartFrame	OrigNumFrames
200	200	8	38	mm	200	151	200
Frame#	Time	C7			T10			CLAV			STRN			RBAK			LASI			RASI			SACR			RT1			RT2			RT3			RKNE			RS1			RS2			RS3			RANK			RHEE			RTOE			LT1			LT2			LT3			LKNE			LS1			LS2			LS3			LANK			LHEE			LTOE			LANM			RANM			RKNM			LKNM			RHJC			LHJC			LKJC			LAJC			RKJC			RAJC		
		X1	Y1	Z1	X2	Y2	Z2	X3	Y3	Z3	X4	Y4	Z4	X5	Y5	Z5	X6	Y6	Z6	X7	Y7	Z7	X8	Y8	Z8	X9	Y9	Z9	X10	Y10	Z10	X11	Y11	Z11	X12	Y12	Z12	X13	Y13	Z13	X14	Y14	Z14	X15	Y15	Z15	X16	Y16	Z16	X17	Y17	Z17	X18	Y18	Z18	X19	Y19	Z19	X20	Y20	Z20	X21	Y21	Z21	X22	Y22	Z22	X23	Y23	Z23	X24	Y24	Z24	X25	Y25	Z25	X26	Y26	Z26	X27	Y27	Z27	X28	Y28	Z28	X29	Y29	Z29	X30	Y30	Z30	X31	Y31	Z31	X32	Y32	Z32	X33	Y33	Z33	X34	Y34	Z34	X35	Y35	Z35	X36	Y36	Z36	X37	Y37	Z37	X38	Y38	Z38	

151	0.750000	609.831909	1226.222046	305.053772	608.748657	1034.488403	304.519653	623.012146	1224.544800	170.217758	623.617432	1101.534668	102.333710	703.134521	1159.874634	326.819885	516.363464	851.506775	133.688324	719.710510	859.557434	149.067703	606.181091	882.146362	303.834320	791.448730	662.401245	197.917542	803.305115	611.153870	239.302795	793.971985	596.614014	189.509384	815.577209	470.606171	226.597961	858.000183	358.895172	294.985840	859.119385	294.444366	312.152435	876.910034	302.050110	265.463745	895.300964	94.406067	285.619751	835.003723	74.224419	313.405243	920.393433	65.823074	144.447662	437.908569	664.809692	201.496582	430.131622	605.925537	231.981186	437.624420	601.696289	180.865875	410.569946	460.786560	225.134201	368.008392	341.304352	297.513458	360.898132	276.908386	310.003937	349.755615	288.431274	261.465118	336.161987	96.524475	308.712463	386.509979	76.838470	326.739197	285.429718	64.425079	164.645706	402.011169	91.709137	250.636383	817.424927	103.375595	239.594452	712.631958	431.362823	217.989212	523.203125	421.422272	219.415863	690.340355	795.314101	207.498991	541.584214	789.424736	196.248387	466.886536	441.104416	222.275032	369.086578	94.116806	279.674423	764.104584	450.984497	222.293587	856.362946	98.890831	262.607101	
152	0.755000	609.815002	1226.245239	305.010162	608.758057	1034.510620	304.501556	622.996826	1224.543945	170.157181	623.593079	1101.509521	102.318611	703.163635	1159.915527	326.774231	516.360352	851.489807	133.698120	719.704407	859.532410	149.085907	606.168335	882.180481	303.845428	791.426880	662.393799	197.958664	803.286072	611.150940	239.350784	793.970093	596.601440	189.575241	815.563660	470.594391	226.646851	858.013306	358.928833	295.029144	859.106873	294.426849	312.198730	876.916077	302.062378	265.485840	895.287659	94.408966	285.630249	835.007385	74.222595	313.415131	920.398926	65.819954	144.445282	437.906464	664.800964	201.554581	430.119263	605.931702	232.034927	437.940277	601.538879	180.909775	410.561432	460.786102	225.188477	368.014862	341.283173	297.552490	360.813324	276.796448	310.089569	349.762878	288.432770	261.498077	336.162567	96.530289	308.733734	386.513489	76.850677	326.742523	285.428864	64.424103	164.647644	402.000244	91.719864	250.646576	817.431458	103.380402	239.600555	712.619019	431.351624	218.059448	522.958130	421.325775	219.817184	690.327214	795.311191	207.538114	541.573072	789.427712	196.281345	466.759781	441.055939	222.502831	369.081406	94.125076	279.690155	764.091339	450.973007	222.353149	856.359558	98.894684	262.615402	
153	0.760000	609.806335	1226.269287	304.964844	608.779175	1034.536499	304.478882	622.986023	1224.542603	170.107544	623.550415	1101.484863	102.306023	703.152222	1159.940308	326.758972	516.366943	851.483337	133.708939	719.680237	859.515503	149.095734	606.175537	882.217712	303.847137	791.413025	662.379944	198.002121	802.932434	610.936096	239.267578	793.962585	596.581177	189.624329	815.552673	470.584320	226.702271	857.962402	358.927277	295.029510	859.110596	294.430023	312.214935	876.890564	302.054932	265.528839	895.290222	94.401276	285.635529	835.010559	74.219803	313.409821	920.402222	65.818581	144.446991	437.923218	664.801941	201.615372	430.121002	605.939392	232.079208	437.742432	601.639343	181.110947	410.564423	460.783142	225.241119	368.017426	341.281830	297.594299	360.897156	276.902374	310.082733	349.766846	288.426483	261.535156	336.163666	96.527534	308.727020	386.518921	76.851181	326.737427	285.423309	64.419479	164.650162	402.000977	91.716194	250.644440	817.422485	103.386063	239.600647	712.595581	431.351227	218.117340	522.975830	421.312836	219.881729	690.302697	795.322804	207.564739	541.568838	789.446873	196.308528	466.770126	441.047989	222.561424	369.082321	94.121864	279.685730	764.074127	450.967773	222.409805	856.356354	98.893669	262.618088	
154	0.765000	609.811890	1226.280029	304.913330	608.820068	1034.529785	304.452515	622.965942	1224.550171	170.057541	623.529968	1101.482666	102.279106	703.137573	1159.977783	326.713593	516.366699	851.463562	133.714981	719.690674	859.492920	149.098755	606.181519	882.237244	303.846405	791.405090	662.363953	198.051361	803.258789	611.125488	239.460175	793.950195	596.572205	189.676498	815.546814	470.578125	226.748062	857.945618	358.903839	295.065002	859.114258	294.428040	312.237549	876.931702	302.078064	265.582672	895.298889	94.403618	285.640259	835.012573	74.212898	313.408051	920.404419	65.819733	144.447525	437.913879	664.800049	201.656677	430.104034	605.942810	232.138931	438.013855	601.551453	181.219742	410.560364	460.792877	225.307297	368.011108	341.284821	297.626282	360.892944	276.896606	310.123108	349.756714	288.429993	261.555176	336.171814	96.519409	308.732788	386.514069	76.851669	326.752258	285.417114	64.423988	164.645859	402.003448	91.713402	250.646790	817.445374	103.376350	239.606918	712.573792	431.346008	218.180664	523.240295	421.134460	220.144882	690.309752	795.312619	207.584576	541.568814	789.438770	196.330630	466.900330	440.963669	222.726089	369.087631	94.116405	279.689789	764.060303	450.962067	222.464363	856.372131	98.889984	262.623589	
155	0.770000	609.800476	1226.287109	304.894470	608.801208	1034.555908	304.435394	622.942322	1224.552246	169.996811	623.497925	1101.442139	102.261879	703.116089	1159.994385	326.689117	516.362183	851.442322	133.745697	719.656616	859.474548	149.100159	606.186401	882.280396	303.833801	791.367493	662.345337	198.096039	803.249634	611.127502	239.507736	793.942261	596.557739	189.721359	815.540527	470.576355	226.801804	857.995422	358.929413	295.121826	859.119446	294.406799	312.261353	876.917236	302.048035	265.607208	895.301331	94.405266	285.643982	835.006714	74.206917	313.420105	920.397705	65.820137	144.445694	437.893463	664.811584	201.686584	430.112885	605.956787	232.179672	437.930969	601.524353	181.101898	410.546783	460.794067	225.359940	368.000977	341.289978	297.679474	360.909851	276.884277	310.159058	349.765533	288.443817	261.602600	336.171906	96.516624	308.728210	386.523712	76.858612	326.750000	285.415558	64.418114	164.643280	402.005157	91.720139	250.648682	817.455139	103.371574	239.590408	712.556580	431.342773	218.247681	522.988098	421.331970	219.970413	690.287308	795.327059	207.609626	541.565733	789.451024	196.376954	466.767441	441.063019	222.665176	369.088531	94.118382	279.688446	764.048553	450.959564	222.524742	856.378235	98.888420	262.617195	
156	0.775000	609.791382	1226.290405	304.829926	608.838013	1034.555176	304.388397	622.931396	1224.551880	169.946136	623.477173	1101.414429	102.261185	703.131165	1160.033569	326.658051	516.331177	851.425781	133.741196	719.647705	859.455505	149.102570	606.165771	882.327637	303.842651	791.357361	662.342712	198.125854	803.228699	611.121704	239.540863	793.914001	596.545532	189.754257	815.530457	470.569275	226.825531	858.000244	358.942047	295.160858	859.124756	294.409180	312.283722	876.901489	302.062408	265.610870	895.300293	94.406639	285.654816	835.010925	74.205872	313.420898	920.405334	65.816536	144.447800	437.907410	664.796997	201.740143	430.085693	605.967651	232.223312	437.981171	601.559998	181.305344	410.548126	460.790955	225.402786	367.993774	341.288300	297.727936	360.929718	276.882019	310.176086	349.769897	288.444000	261.610962	336.172516	96.518684	308.746460	386.516449	76.850739	326.742798	285.412384	64.411316	164.642685	402.004089	91.711960	250.635818	817.450012	103.382370	239.602859	712.538269	431.330566	218.316162	522.993896	421.326813	220.027725	690.269123	795.325309	207.640548	541.532984	789.451167	196.402940	466.771011	441.058884	222.715256	369.088303	94.115322	279.691139	764.034363	450.949921	222.570847	856.375153	98.894505	262.628838	
157	0.780000	609.787354	1226.308105	304.776367	608.840881	1034.582153	304.371490	622.902588	1224.539429	169.880188	623.465332	1101.393311	102.232872	703.131714	1160.091187	326.636993	516.332275	851.397522	133.734955	719.636658	859.446716	149.092712	606.183716	882.353394	303.838684	791.327209	662.341309	198.156113	803.235352	611.125366	239.559296	793.889709	596.527405	189.794540	815.514709	470.554535	226.877472	857.997253	358.906586	295.194366	859.125793	294.414063	312.321228	876.884277	302.076538	265.619049	895.305176	94.411263	285.652924	834.999878	74.204903	313.419617	920.405518	65.824135	144.444748	437.898621	664.807861	201.766083	430.072906	605.962769	232.262131	437.804718	601.570496	181.032730	410.538971	460.792145	225.448196	368.004456	341.288147	297.756897	360.920471	276.885803	310.233368	349.757507	288.444611	261.646332	336.174805	96.521652	308.751953	386.500580	76.850365	326.747772	285.409668	64.418716	164.647171	401.997101	91.724701	250.657700	817.446045	103.383530	239.608078	712.521301	431.346893	218.373672	523.261536	421.140564	220.295273	690.264957	795.333494	207.649469	541.536876	789.445076	196.414444	466.900253	440.966354	222.871735	369.085953	94.123177	279.704826	764.018005	450.950714	222.625572	856.375610	98.897396	262.630501	
158	0.785000	609.763184	1226.313599	304.729645	608.842102	1034.590088	304.343262	622.895081	1224.526978	169.846207	623.442505	1101.365234	102.188759	703.117432	1160.108032	326.588440	516.309204	851.394836	133.747360	719.643738	859.411499	149.097824	606.176758	882.368835	303.844086	791.310608	662.331604	198.170990	803.222595	611.116821	239.610779	793.869751	596.528503	189.822250	815.512024	470.560272	226.914078	857.979248	358.917999	295.221283	859.129700	294.415344	312.342010	876.926636	302.090790	265.661896	895.300476	94.407425	285.655823	835.012085	74.206543	313.412384	920.408630	65.819366	144.448547	437.853027	664.816833	201.801727	430.063843	605.967468	232.306976	437.857727	601.609131	181.253265	410.534393	460.796478	225.514069	367.998993	341.291199	297.789459	360.917572	276.878845	310.256226	349.752838	288.457245	261.668640	336.176392	96.519691	308.754547	386.509705	76.845795	326.759521	285.409515	64.416031	164.643005	401.993469	91.731461	250.654388	817.446899	103.385773	239.613144	712.506409	431.334259	218.424744	523.263306	421.144592	220.345261	690.258121	795.306770	207.670017	541.509995	789.442230	196.440480	466.898849	440.970535	222.929665	369.084930	94.125576	279.704468	764.009216	450.947266	222.669411	856.373688	98.896599	262.634483	
